# xmcd
#
# Track frame offsets: 
#        150
#        18616
#        32300
#        54338
#        68601
#        89614
#        103692
#        120726
#        134640
#        151026
#        169332
#        184985
#        203647
#        218163
#        234047
#        249385
#        263044
#
# Disc length: 3745 seconds
#
# Revision: 0
# Processed by: cddbd v1.5.2PL0 Copyright (c) Steve Scherf et al.
# Submitted via: ExactAudioCopyFreeDBPlugin 1.0
#
DISCID=e10e9f11
DTITLE=Chief Keef - Finally Rich (Deluxe Edition)
DYEAR=2012
DGENRE=Rap
TTITLE0=Love Sosa
TTITLE1=Hallelujah
TTITLE2=I Don't Like (feat. Lil Reese)
TTITLE3=No Tomorrow
TTITLE4=Hate Bein' Sober (feat. 50 Cent and Wiz Khalifa)
TTITLE5=Kay Kay
TTITLE6=Laughin' To The Bank
TTITLE7=Diamonds (feat. French Montana)
TTITLE8=Ballin'
TTITLE9=Understand Me (feat. Young Jeezy)
TTITLE10=3Hunna (feat. Rick Ross)
TTITLE11=Finally Rich
TTITLE12=Citgo
TTITLE13=Kobe
TTITLE14=Got Them Bands
TTITLE15=Savage
TTITLE16=I Don't Know Dem
EXTD=
EXTT0=
EXTT1=
EXTT2=
EXTT3=
EXTT4=
EXTT5=
EXTT6=
EXTT7=
EXTT8=
EXTT9=
EXTT10=
EXTT11=
EXTT12=
EXTT13=
EXTT14=
EXTT15=
EXTT16=
PLAYORDER=
